<?xml version="1.0" encoding="UTF-8" standalone="no"?>
<!DOCTYPE svg PUBLIC "-//W3C//DTD SVG 1.1//EN" "http://www.w3.org/Graphics/SVG/1.1/DTD/svg11.dtd">
<svg width="100%" height="100%" viewBox="0 0 270 160" version="1.1" xmlns="http://www.w3.org/2000/svg" xmlns:xlink="http://www.w3.org/1999/xlink" xml:space="preserve" xmlns:serif="http://www.serif.com/" style="fill-rule:evenodd;clip-rule:evenodd;stroke-linejoin:round;stroke-miterlimit:2;">
    <g>
        <path d="M59.31,132.29L61.16,121.66L67.06,121.66L66.89,122.73L62.21,122.73L61.6,126.2L66.14,126.2L65.96,127.28L61.4,127.28L60.52,132.29L59.31,132.29Z" style="fill:rgb(255,202,11);fill-rule:nonzero;"/>
        <path d="M68.8,132.29L70.65,121.66L71.91,121.66L70.23,131.15L75.26,131.15L75.07,132.29L68.8,132.29Z" style="fill:rgb(255,202,11);fill-rule:nonzero;"/>
        <path d="M77.94,132.29L79.79,121.66L85.59,121.66L85.4,122.73L80.86,122.73L80.26,126.2L84.77,126.2L84.58,127.28L80.08,127.28L79.37,131.15L84.04,131.15L83.83,132.29L77.94,132.29Z" style="fill:rgb(255,202,11);fill-rule:nonzero;"/>
        <path d="M86.59,132.29L91.5,126.72L88.23,121.66L89.71,121.66L92.34,125.76L95.95,121.66L97.42,121.66L92.94,126.7L96.52,132.29L95.09,132.29L92.1,127.64L87.99,132.29L86.59,132.29Z" style="fill:rgb(255,202,11);fill-rule:nonzero;"/>
        <path d="M99.17,132.29L101.04,121.66L102.32,121.66L100.44,132.29L99.17,132.29Z" style="fill:rgb(255,202,11);fill-rule:nonzero;"/>
        <path d="M104.74,132.29L106.6,121.66L108.35,121.66C109.39,121.595 110.428,121.816 111.35,122.3C112.014,122.708 112.399,123.452 112.35,124.23C112.371,124.816 112.175,125.39 111.8,125.84C111.39,126.307 110.839,126.627 110.23,126.75C110.718,126.956 111.133,127.305 111.42,127.75C111.698,128.185 111.838,128.694 111.82,129.21C111.822,129.675 111.726,130.134 111.54,130.56C111.35,130.954 111.069,131.296 110.72,131.56C110.361,131.847 109.94,132.046 109.49,132.14C108.802,132.275 108.101,132.332 107.4,132.31L104.74,132.29ZM106.14,131.29L108.14,131.29C108.81,131.331 109.471,131.116 109.99,130.69C110.441,130.285 110.684,129.695 110.65,129.09C110.677,128.553 110.456,128.033 110.05,127.68C109.579,127.31 108.988,127.125 108.39,127.16L106.86,127.16L106.14,131.29ZM107.03,126.2L108.52,126.2C109.223,126.249 109.923,126.074 110.52,125.7C110.975,125.387 111.239,124.862 111.22,124.31C111.253,123.829 111.008,123.37 110.59,123.13C109.967,122.835 109.278,122.704 108.59,122.75L107.7,122.75L107.03,126.2Z" style="fill:rgb(255,202,11);fill-rule:nonzero;"/>
        <path d="M115.04,132.29L116.89,121.66L118.15,121.66L116.47,131.15L121.5,131.15L121.31,132.29L115.04,132.29Z" style="fill:rgb(255,202,11);fill-rule:nonzero;"/>
        <path d="M124.18,132.29L126.03,121.66L131.82,121.66L131.64,122.73L127.09,122.73L126.5,126.2L131.01,126.2L130.82,127.28L126.31,127.28L125.61,131.15L130.28,131.15L130.06,132.29L124.18,132.29Z" style="fill:rgb(255,202,11);fill-rule:nonzero;"/>
        <path d="M139.64,132.29L141.49,121.66L147.39,121.66L147.21,122.73L142.54,122.73L141.93,126.2L146.47,126.2L146.28,127.28L141.73,127.28L140.85,132.29L139.64,132.29Z" style="fill:rgb(255,202,11);fill-rule:nonzero;"/>
        <path d="M149.13,132.29L150.99,121.66L152.28,121.66L150.4,132.29L149.13,132.29Z" style="fill:rgb(255,202,11);fill-rule:nonzero;"/>
        <path d="M157.36,124.25L155.93,132.29L154.7,132.29L156.63,121.32L156.8,121.32L162.46,129.73L163.91,121.66L165.13,121.66L163.2,132.64L163.02,132.64L157.36,124.25Z" style="fill:rgb(255,202,11);fill-rule:nonzero;"/>
        <path d="M176.24,132.29L174.93,132.29L174.14,129.59L169.25,129.59L167.67,132.29L166.42,132.29L172.8,121.48L173,121.48L176.24,132.29ZM169.83,128.57L173.83,128.57L172.5,123.87L169.83,128.57Z" style="fill:rgb(255,202,11);fill-rule:nonzero;"/>
        <path d="M181.34,124.25L179.92,132.29L178.69,132.29L180.61,121.32L180.79,121.32L186.45,129.73L187.89,121.66L189.12,121.66L187.19,132.64L187.01,132.64L181.34,124.25Z" style="fill:rgb(255,202,11);fill-rule:nonzero;"/>
        <path d="M199.52,131.45C199.073,131.839 198.562,132.146 198.01,132.36C197.485,132.554 196.93,132.652 196.37,132.65C195.089,132.684 193.856,132.154 193,131.2C192.098,130.18 191.625,128.85 191.68,127.49C191.68,126.765 191.788,126.043 192,125.35C192.228,124.685 192.566,124.063 193,123.51C193.5,122.832 194.146,122.275 194.89,121.88C195.609,121.504 196.409,121.308 197.22,121.31C197.873,121.298 198.522,121.427 199.12,121.69C199.746,121.992 200.309,122.409 200.78,122.92L200.07,123.92C199.722,123.469 199.283,123.097 198.78,122.83C198.296,122.586 197.762,122.459 197.22,122.46C196.673,122.466 196.136,122.599 195.65,122.85C195.131,123.088 194.665,123.428 194.28,123.85C193.842,124.333 193.502,124.897 193.28,125.51C193.058,126.153 192.947,126.83 192.95,127.51C192.921,128.559 193.277,129.584 193.95,130.39C194.524,131.117 195.404,131.538 196.33,131.53C196.804,131.534 197.275,131.438 197.71,131.25C198.178,131.037 198.605,130.743 198.97,130.38L199.52,131.45Z" style="fill:rgb(255,202,11);fill-rule:nonzero;"/>
        <path d="M202.46,132.29L204.31,121.66L210.1,121.66L209.92,122.73L205.37,122.73L204.78,126.2L209.29,126.2L209.1,127.28L204.6,127.28L203.89,131.15L208.56,131.15L208.34,132.29L202.46,132.29Z" style="fill:rgb(255,202,11);fill-rule:nonzero;"/>
    </g>
    <g>
        <g>
            <path d="M145.47,58.55L144.24,58.65L145.24,58.8L154.37,58.8C158.01,58.39 163.55,56.02 167.2,54.56L164.75,55.22C158.406,56.828 151.946,57.941 145.43,58.55" style="fill:rgb(255,202,11);fill-rule:nonzero;"/>
            <path d="M98.27,36.69C112.06,38 125.83,40.2 140,39.36C146.532,38.931 153.01,37.893 159.35,36.26C164.948,34.815 170.438,32.98 175.78,30.77C181.06,28.62 186.17,26.34 191.24,24.06C189.076,22.856 186.646,22.207 184.17,22.17L183.58,22.43C178.118,24.909 172.507,27.046 166.78,28.83C160.54,30.708 154.15,32.046 147.68,32.83C144.36,33.24 141.02,33.56 137.68,33.68C134.34,33.8 130.68,33.79 127.15,33.68C120.09,33.41 113.15,32.74 106.15,32.19C101.46,31.82 96.75,31.5 92.01,31.39C90.01,31.34 87.91,31.34 85.86,31.39C83.6,32.77 80.86,34.56 78.39,35.82L78.69,35.82C85.275,35.728 91.86,36.029 98.41,36.72" style="fill:rgb(255,202,11);fill-rule:nonzero;"/>
            <path d="M177,23.41C174.88,24.13 172.47,23.96 170.19,24.24C166.866,24.515 163.561,24.979 160.29,25.63C155.62,26.78 151.16,28.9 146.46,29.69C134.59,31.69 122.56,32.03 111.26,27.32C110.28,26.91 109.278,26.553 108.26,26.25C104.84,25.16 101.205,24.916 97.67,25.54C94.471,26.17 91.444,27.476 88.79,29.37L88.7,29.43C101.14,30 113.2,32 125.57,32.8C131.073,33.195 136.597,33.195 142.1,32.8C146.953,32.413 151.771,31.681 156.52,30.61C164.391,28.754 172.056,26.115 179.4,22.73C178.61,22.92 177.81,23.15 177.01,23.42" style="fill:rgb(255,202,11);fill-rule:nonzero;"/>
            <path d="M119.14,44.57C120.84,44.8 122.54,45.04 124.23,45.29C125.92,45.54 127.72,45.6 129.45,45.69C132.343,45.843 135.233,45.88 138.12,45.8C141.901,45.676 145.672,45.322 149.41,44.74C155.566,43.822 161.636,42.401 167.56,40.49C173.21,38.67 178.46,36.49 183.56,34.29C188.66,32.09 193.77,29.72 199.14,27.62C198.206,26.9 197.139,26.373 196,26.07C194.903,25.761 193.832,25.363 192.8,24.88C189.1,26.49 185.46,28.16 181.8,29.72C176.194,32.129 170.439,34.173 164.57,35.84C158.257,37.572 151.817,38.802 145.31,39.52C139.37,40.159 133.391,40.373 127.42,40.16C120.37,39.94 113.42,39.32 106.42,38.77C97.252,37.885 88.032,37.644 78.83,38.05C76.313,38.234 73.815,38.619 71.36,39.2C69.96,39.89 68.58,40.54 67.36,41.05C64.79,42.12 60.79,43.78 58.01,45.05L57.94,45.05L53.94,46.97C53.015,47.63 52.233,48.47 51.64,49.44C55.74,47.8 60,46.31 64.47,45C67.47,44.15 70.47,43.42 73.68,42.84C75.35,42.54 77.06,42.34 78.79,42.2L83.15,41.01L90.6,39.01C90.923,39.645 91.168,40.316 91.33,41.01C91.329,41.368 91.268,41.722 91.15,42.06C94.25,42.18 97.35,42.39 100.45,42.58C106.76,42.95 112.99,43.7 119.14,44.58" style="fill:rgb(255,202,11);fill-rule:nonzero;"/>
            <path d="M61.84,54.06C62.132,53.893 62.44,53.755 62.76,53.65C65.76,52.85 68.76,52.08 71.82,51.29C71.93,51.6 72.05,51.9 72.16,52.2C70.96,52.74 69.8,53.44 68.61,54L65.16,55.39C69.635,54.32 74.21,53.723 78.81,53.61C85.396,53.639 91.974,54.056 98.51,54.86C100.76,55.12 103.02,55.41 105.27,55.69L108.52,54.06C108.89,53.84 109.27,53.61 109.62,53.36C110.981,52.543 112.405,51.837 113.88,51.25L106.33,50.49C101.65,50.04 96.94,49.64 92.2,49.44C87.9,49.26 83.37,49.3 79.26,49.5C77.396,49.633 75.541,49.86 73.7,50.18C70.729,50.746 67.794,51.488 64.91,52.4C63.33,52.9 61.79,53.433 60.29,54L60.46,54.06L61.84,54.06Z" style="fill:rgb(255,202,11);fill-rule:nonzero;"/>
            <path d="M203.42,38.32C203.33,37.9 202.81,36.61 202.73,36.19C202.65,35.77 202.54,35.19 202.46,34.57C197.17,36.42 192.23,38.57 187.32,40.74L187.96,41.05L193.05,41.05C193.7,41.29 194.91,41.78 195.82,42.14L196.82,42.54C197.396,42.721 198.01,42.748 198.6,42.62C199.67,42.21 200.75,41.81 201.85,41.43C202.13,41.28 202.38,41.12 202.6,40.98L202.52,40.98C202.999,40.489 203.319,39.865 203.44,39.19C203.495,38.903 203.495,38.607 203.44,38.32" style="fill:rgb(255,202,11);fill-rule:nonzero;"/>
            <path d="M129.65,54.36L130.15,54.36C134.03,55.842 137.985,57.117 142,58.18C147.903,57.784 153.763,56.901 159.52,55.54C165.145,54.195 170.668,52.457 176.05,50.34C178.45,49.42 180.8,48.46 183.15,47.49L183.27,47.06L183.78,45.49C184.1,44.49 184.61,42.95 185.03,41.71L184.03,42.15C178.525,44.53 172.877,46.567 167.12,48.25C160.847,50.02 154.433,51.248 147.95,51.92C144.62,52.27 141.28,52.53 137.88,52.59C134.48,52.65 130.88,52.59 127.36,52.37L125.43,52.25C125.85,52.45 126.21,52.62 126.43,52.74C127.49,53.32 128.57,53.85 129.66,54.36" style="fill:rgb(255,202,11);fill-rule:nonzero;"/>
            <path d="M77.42,47.25C79.64,47.16 81.86,47.16 84.08,47.25C94.89,47.52 105.33,49.17 115.87,50.46L117.05,49.99L120.05,49.99C120.74,50.25 121.94,50.75 123.14,51.26C124.07,51.35 124.99,51.44 125.92,51.51C131.416,52.001 136.94,52.098 142.45,51.8C147.309,51.498 152.141,50.853 156.91,49.87C169.39,47.31 179.53,42.62 189.76,38.13C193.76,36.36 197.89,34.61 202.27,33.13C202.17,32.505 202.016,31.889 201.81,31.29C201.45,30.395 200.958,29.559 200.35,28.81C197.13,30 194.05,31.32 191.02,32.65C185.71,34.98 180.5,37.38 174.85,39.46C163.713,43.532 152.009,45.846 140.16,46.32C126.16,46.9 112.26,44.76 98.39,43.78C95.77,43.6 93.11,43.45 90.45,43.36C89.73,44.082 88.804,44.565 87.8,44.74C85.8,45.17 79.03,46.33 76.88,46.5L68.66,46.58C65.554,47.487 62.507,48.589 59.54,49.88C56.573,51.171 59.54,49.88 59.61,49.96L59.4,49.96C59.18,50.17 58.66,50.6 58.1,51.05C61.645,49.914 65.259,49.005 68.92,48.33C71.728,47.805 74.567,47.471 77.42,47.33" style="fill:rgb(255,202,11);fill-rule:nonzero;"/>
            <path d="M183.21,49.9C183.081,49.638 183.006,49.352 182.99,49.06L182.13,49.41C177.396,51.325 172.566,52.994 167.66,54.41C168.021,55.927 168.565,57.395 169.28,58.78L171.22,58.78C175.59,57.32 179.77,55.68 183.86,53.99C186.65,52.84 189.41,51.66 192.2,50.51C190.99,50.25 189.92,50.03 189.05,49.88L183.21,49.9Z" style="fill:rgb(255,202,11);fill-rule:nonzero;"/>
            <path d="M194.53,62.89L195.42,62.49C199.843,60.414 204.377,58.581 209,57L211,56.38C210.27,55.51 209.41,54.72 209.25,54.38C208.11,54.17 206.61,53.85 204.93,53.47C198.76,55.78 193.07,58.56 187.31,61.12C189.9,61.65 192.41,62.25 194.6,62.91" style="fill:rgb(255,202,11);fill-rule:nonzero;"/>
            <path d="M177.85,58.58C177.25,58.82 176.63,59.05 176.01,59.28C178.7,59.62 181.76,60.07 184.81,60.63C187.46,59.43 190.08,58.21 192.71,57C195.81,55.57 198.96,54.15 202.25,52.85C199.78,52.27 197.14,51.64 194.74,51.09L193.9,51.48C188.64,53.9 183.46,56.4 177.85,58.58" style="fill:rgb(255,202,11);fill-rule:nonzero;"/>
            <path d="M199.26,64.73C199.819,65.043 200.472,65.146 201.1,65.02C202.684,64.542 204.381,64.584 205.94,65.14C207.81,64.46 209.73,63.82 211.7,63.24L212.77,62.93L213.41,62.33C213.85,61.91 214.28,61.49 214.7,61.06L215.35,60.36L212,58.73C212.108,58.428 212.086,58.095 211.94,57.81C206.687,59.375 201.545,61.293 196.55,63.55C197.491,63.883 198.41,64.277 199.3,64.73" style="fill:rgb(255,202,11);fill-rule:nonzero;"/>
            <path d="M211,65.15L211.07,65.15C211.71,64.98 212.8,64.67 211,65.15" style="fill:rgb(255,202,11);fill-rule:nonzero;"/>
            <path d="M211,65.15L210.93,65.15L211.07,65.15L211,65.15" style="fill:rgb(255,202,11);fill-rule:nonzero;"/>
            <path d="M210.91,65.17L210.98,65.17L210.91,65.17" style="fill:rgb(255,202,11);fill-rule:nonzero;"/>
        </g>
        <path d="M79,55.88C73.16,56.14 67.51,57.78 62.56,59.41C59.68,60.35 56.92,61.41 54.21,62.48L53.41,62.81C52.781,63.666 52.908,64.873 53.7,65.58C53.796,65.688 53.899,65.788 54.01,65.88C55.68,67.32 57.21,65.73 58.56,64.57C58.667,64.477 58.764,64.373 58.85,64.26C59.058,63.936 59.307,63.641 59.59,63.38C60.82,62.48 62.01,61.26 63.41,60.89C63.59,60.89 66.8,59.09 67.41,58.8L71.73,58.8C74.43,58.17 77.15,57.59 79.87,57.1C82.093,56.684 84.386,56.842 86.53,57.56C87.985,58.089 89.48,58.504 91,58.8L98.1,58.8C99.923,58.416 101.672,57.741 103.28,56.8C95.217,55.94 87.105,55.633 79,55.88" style="fill:rgb(255,202,11);fill-rule:nonzero;"/>
        <path d="M210.91,65.17C210.04,65.41 209.19,65.67 208.34,65.94C209.94,66.447 211.643,66.544 213.29,66.22C215.09,65.87 216.85,65.22 217.77,63.61C215.457,64.017 213.217,64.523 211.05,65.13L210.91,65.13" style="fill:rgb(255,202,11);fill-rule:nonzero;"/>
    </g>
    <g>
        <path d="M11.09,89L8.81,101.69L1.3,101.69L7,69.29L14.8,69.29C18.733,69.29 21.827,70.203 24.08,72.03C26.332,73.82 27.593,76.586 27.47,79.46C27.534,81.649 26.744,83.78 25.27,85.4C23.639,87.082 21.484,88.161 19.16,88.46L27.29,101.69L18.64,101.69L11.36,89L11.09,89ZM11.83,84.59L13.79,84.59C15.423,84.68 17.037,84.195 18.35,83.22C19.442,82.322 20.053,80.963 20,79.55C20.083,78.296 19.548,77.078 18.57,76.29C17.314,75.471 15.825,75.085 14.33,75.19L13.52,75.19L11.83,84.59Z" style="fill:rgb(3,151,68);fill-rule:nonzero;"/>
        <path d="M48.6,81.56L45.07,101.69L38.07,101.69L38.43,99.59C37.527,100.472 36.496,101.21 35.37,101.78C34.435,102.234 33.409,102.47 32.37,102.47C30.414,102.506 28.555,101.606 27.37,100.05C26.013,98.198 25.335,95.933 25.45,93.64C25.326,90.35 26.329,87.114 28.29,84.47C29.919,82.171 32.572,80.807 35.39,80.82C36.447,80.806 37.493,81.032 38.45,81.48C39.511,82.023 40.472,82.743 41.29,83.61L41.6,81.61L48.6,81.56ZM40.49,87.88C40.197,87.236 39.746,86.675 39.18,86.25C38.653,85.882 38.022,85.693 37.38,85.71C35.863,85.76 34.479,86.604 33.74,87.93C32.692,89.571 32.168,91.494 32.24,93.44C32.188,94.444 32.489,95.435 33.09,96.24C33.64,96.931 34.487,97.321 35.37,97.29C36.469,97.284 37.505,96.766 38.17,95.89C39.042,94.758 39.601,93.416 39.79,92L40.49,87.88Z" style="fill:rgb(3,151,68);fill-rule:nonzero;"/>
        <path d="M45.15,111.43L50.4,81.56L57.4,81.56L57,83.66C57.903,82.778 58.934,82.04 60.06,81.47C60.993,81.012 62.02,80.776 63.06,80.78C65.018,80.73 66.884,81.633 68.06,83.2C69.416,85.05 70.1,87.309 70,89.6C70.102,92.904 69.13,96.155 67.23,98.86C65.377,101.393 63.157,102.657 60.57,102.65C59.416,102.647 58.278,102.384 57.24,101.88C56.108,101.324 55.091,100.561 54.24,99.63L52.14,111.43L45.15,111.43ZM55,95.36C55.579,95.931 56.231,96.421 56.94,96.82C57.455,97.108 58.031,97.269 58.62,97.29C60.023,97.212 61.278,96.376 61.89,95.11C62.849,93.469 63.321,91.589 63.25,89.69C63.282,88.726 62.99,87.778 62.42,87C61.917,86.344 61.126,85.971 60.3,86C59.638,86.014 58.989,86.189 58.41,86.51C57.652,86.914 56.949,87.415 56.32,88L55,95.36Z" style="fill:rgb(3,151,68);fill-rule:nonzero;"/>
        <path d="M68.89,101.69L72.4,81.56L79.55,81.56L76,101.69L68.89,101.69ZM73.23,73.92C73.23,73.913 73.23,73.906 73.23,73.899C73.23,71.858 74.909,70.179 76.95,70.179C78.991,70.179 80.67,71.858 80.67,73.899C80.67,75.94 78.991,77.619 76.95,77.619C75.964,77.619 75.017,77.227 74.32,76.53C73.614,75.847 73.22,74.902 73.23,73.92" style="fill:rgb(3,151,68);fill-rule:nonzero;"/>
        <path d="M91.1,101.69L91.45,99.59C90.571,100.47 89.558,101.205 88.45,101.77C87.515,102.226 86.49,102.465 85.45,102.47C83.495,102.505 81.636,101.605 80.45,100.05C79.093,98.198 78.415,95.933 78.53,93.64C78.411,90.351 79.413,87.116 81.37,84.47C83.001,82.173 85.653,80.81 88.47,80.82C89.564,80.81 90.646,81.042 91.64,81.5C92.678,82.021 93.605,82.737 94.37,83.61L96.94,68.84L103.94,68.84L98.17,101.69L91.1,101.69ZM93.51,87.88C93.22,87.234 92.769,86.672 92.2,86.25C91.673,85.882 91.042,85.693 90.4,85.71C88.883,85.76 87.499,86.604 86.76,87.93C85.715,89.572 85.195,91.495 85.27,93.44C85.22,94.447 85.528,95.439 86.14,96.24C86.7,96.93 87.552,97.319 88.44,97.29C89.534,97.285 90.565,96.766 91.22,95.89C92.074,94.75 92.624,93.411 92.82,92L93.51,87.88Z" style="fill:rgb(3,151,68);fill-rule:nonzero;"/>
        <path d="M115.26,101.69L107.7,101.69L130.05,68.24L130.78,68.24L140.78,101.69L132.96,101.69L131.62,96.93L118.27,96.93L115.26,101.69ZM130.05,91.61L127.43,82.79L121.67,91.61L130.05,91.61Z" style="fill:rgb(3,151,68);fill-rule:nonzero;"/>
        <path d="M153.33,101.69L153.69,99.59C152.808,100.467 151.796,101.202 150.69,101.77C149.755,102.226 148.73,102.465 147.69,102.47C145.718,102.518 143.838,101.617 142.64,100.05C141.283,98.198 140.605,95.933 140.72,93.64C140.601,90.351 141.603,87.116 143.56,84.47C145.193,82.17 147.85,80.807 150.67,80.82C151.761,80.81 152.84,81.043 153.83,81.5C154.869,82.019 155.796,82.736 156.56,83.61L159.13,68.84L166.13,68.84L160.36,101.69L153.33,101.69ZM155.74,87.88C155.454,87.234 155.006,86.673 154.44,86.25C153.911,85.887 153.282,85.698 152.64,85.71C151.122,85.758 149.737,86.603 149,87.93C147.952,89.571 147.428,91.494 147.5,93.44C147.45,94.447 147.758,95.439 148.37,96.24C148.93,96.93 149.782,97.319 150.67,97.29C151.765,97.287 152.796,96.768 153.45,95.89C154.312,94.735 154.863,93.379 155.05,91.95L155.74,87.88Z" style="fill:rgb(3,151,68);fill-rule:nonzero;"/>
        <path d="M170.4,102.83L163.07,81.56L170.18,81.56L172.93,90.03L178.31,81.56L184.81,81.56L170.98,102.83L170.4,102.83Z" style="fill:rgb(3,151,68);fill-rule:nonzero;"/>
        <path d="M181.75,101.69L185.26,81.56L192.41,81.56L188.84,101.69L181.75,101.69ZM186.09,73.92C186.09,73.913 186.09,73.907 186.09,73.9C186.09,71.876 187.756,70.21 189.78,70.21C189.787,70.21 189.793,70.21 189.8,70.21C189.813,70.21 189.827,70.21 189.84,70.21C191.854,70.21 193.51,71.866 193.51,73.88C193.51,73.893 193.51,73.907 193.51,73.92C193.51,75.955 191.835,77.63 189.8,77.63C187.765,77.63 186.09,75.955 186.09,73.92" style="fill:rgb(3,151,68);fill-rule:nonzero;"/>
        <path d="M193.15,95.83C194.304,96.515 195.519,97.091 196.78,97.55C197.743,97.899 198.756,98.092 199.78,98.12C200.397,98.145 201.005,97.966 201.51,97.61C201.934,97.341 202.192,96.872 202.192,96.369C202.192,95.954 202.017,95.559 201.71,95.28C201.072,94.766 200.361,94.352 199.6,94.05L198.26,93.4C196.905,92.808 195.716,91.891 194.8,90.73C194.028,89.694 193.62,88.432 193.64,87.14C193.615,85.314 194.468,83.583 195.93,82.49C197.623,81.202 199.715,80.547 201.84,80.64C203.23,80.641 204.612,80.85 205.94,81.26C207.358,81.701 208.705,82.344 209.94,83.17L208,87.23C207.014,86.609 205.969,86.086 204.88,85.67C204.052,85.339 203.172,85.156 202.28,85.13C201.651,85.099 201.028,85.267 200.5,85.61C200.077,85.88 199.82,86.348 199.82,86.85C199.82,87.32 200.033,87.766 200.4,88.06C201.164,88.609 201.998,89.053 202.88,89.38L204.11,89.89C205.387,90.398 206.498,91.249 207.32,92.35C209.226,95.001 208.688,98.736 206.11,100.74C204.318,102.053 202.129,102.714 199.91,102.61C198.402,102.612 196.901,102.403 195.45,101.99C193.987,101.571 192.592,100.941 191.31,100.12L193.15,95.83Z" style="fill:rgb(3,151,68);fill-rule:nonzero;"/>
        <path d="M209.71,92.53C209.643,89.346 210.901,86.274 213.18,84.05C215.454,81.769 218.57,80.521 221.79,80.6C224.546,80.491 227.233,81.489 229.25,83.37C231.193,85.245 232.245,87.862 232.14,90.56C232.214,93.761 230.974,96.856 228.71,99.12C226.523,101.401 223.479,102.667 220.32,102.61C217.489,102.736 214.721,101.732 212.63,99.82C210.661,97.92 209.597,95.264 209.71,92.53M221.48,85.89C220.136,85.959 218.918,86.715 218.26,87.89C217.329,89.273 216.853,90.913 216.9,92.58C216.84,93.815 217.192,95.036 217.9,96.05C218.475,96.889 219.433,97.389 220.45,97.38C221.766,97.332 222.967,96.604 223.62,95.46C224.569,94.04 225.052,92.358 225,90.65C225.039,89.427 224.688,88.222 224,87.21C223.438,86.378 222.494,85.882 221.49,85.89" style="fill:rgb(3,151,68);fill-rule:nonzero;"/>
        <path d="M232.23,101.69L235.78,81.56L242.15,81.56L241.46,85.49C242.123,84.19 243.03,83.029 244.13,82.07C244.993,81.372 246.071,80.994 247.18,81C247.515,81.002 247.849,81.028 248.18,81.08C248.521,81.135 248.856,81.222 249.18,81.34L247.91,88.42C247.514,88.323 247.114,88.246 246.71,88.19C246.352,88.14 245.991,88.113 245.63,88.11C244.386,88.046 243.179,88.55 242.35,89.48C241.403,90.803 240.808,92.344 240.62,93.96L239.3,101.74L232.23,101.69Z" style="fill:rgb(3,151,68);fill-rule:nonzero;"/>
        <path d="M248.72,111.43L253.97,100.68L248.07,81.56L255.22,81.56L258.33,92.39L263.13,81.56L269.41,81.56L255.02,111.43L248.72,111.43Z" style="fill:rgb(3,151,68);fill-rule:nonzero;"/>
        <path d="M60.57,106.8L61.57,106.8L59.57,106.8L60.57,106.8" style="fill:rgb(3,151,68);fill-rule:nonzero;"/>
    </g>
    <path d="M246.38,106.76L57.2,106.76L56.78,109.07L245.25,109.07L246.38,106.76Z" style="fill:white;fill-rule:nonzero;"/>
    <path d="M0,109.07L41.35,109.07L41.75,106.76L0.41,106.76L0,109.07Z" style="fill:white;fill-rule:nonzero;"/>
</svg>
