<svg id="Layer_1" data-name="Layer 1" xmlns="http://www.w3.org/2000/svg" viewBox="0 0 269.51 159.42"><defs><style>.cls-1{fill:#ed2125;}.cls-2{fill:#21427a;}</style></defs><title>RA Logos</title><polygon class="cls-1" points="59.31 132.29 61.16 121.66 67.06 121.66 66.89 122.73 62.21 122.73 61.6 126.2 66.14 126.2 65.96 127.28 61.4 127.28 60.52 132.29 59.31 132.29"/><polygon class="cls-1" points="68.8 132.29 70.65 121.66 71.91 121.66 70.23 131.15 75.26 131.15 75.07 132.29 68.8 132.29"/><polygon class="cls-1" points="77.94 132.29 79.79 121.66 85.59 121.66 85.4 122.73 80.86 122.73 80.26 126.2 84.77 126.2 84.58 127.28 80.08 127.28 79.37 131.15 84.04 131.15 83.83 132.29 77.94 132.29"/><polygon class="cls-1" points="86.59 132.29 91.5 126.72 88.23 121.66 89.71 121.66 92.34 125.76 95.95 121.66 97.42 121.66 92.94 126.7 96.52 132.29 95.09 132.29 92.1 127.64 87.99 132.29 86.59 132.29"/><polygon class="cls-1" points="99.17 132.29 101.04 121.66 102.32 121.66 100.44 132.29 99.17 132.29"/><path class="cls-1" d="M104.74,132.29l1.86-10.63h1.75a5.69,5.69,0,0,1,3,.64,2.11,2.11,0,0,1,1,1.93,2.38,2.38,0,0,1-.55,1.61,2.84,2.84,0,0,1-1.57.91,2.64,2.64,0,0,1,1.19,1,2.55,2.55,0,0,1,.4,1.46,3.33,3.33,0,0,1-.28,1.35,2.76,2.76,0,0,1-.82,1,2.93,2.93,0,0,1-1.23.58,9.31,9.31,0,0,1-2.09.17Zm1.4-1h2a2.66,2.66,0,0,0,1.85-.6,2,2,0,0,0,.66-1.6,1.75,1.75,0,0,0-.6-1.41,2.46,2.46,0,0,0-1.66-.52h-1.53Zm.89-5.09h1.49a3.33,3.33,0,0,0,2-.5,1.62,1.62,0,0,0,.7-1.39,1.26,1.26,0,0,0-.63-1.18,4.05,4.05,0,0,0-2-.38h-.89Z"/><polygon class="cls-1" points="115.04 132.29 116.89 121.66 118.15 121.66 116.47 131.15 121.5 131.15 121.31 132.29 115.04 132.29"/><polygon class="cls-1" points="124.18 132.29 126.03 121.66 131.82 121.66 131.64 122.73 127.09 122.73 126.5 126.2 131.01 126.2 130.82 127.28 126.31 127.28 125.61 131.15 130.28 131.15 130.06 132.29 124.18 132.29"/><polygon class="cls-1" points="139.64 132.29 141.49 121.66 147.39 121.66 147.21 122.73 142.54 122.73 141.93 126.2 146.47 126.2 146.28 127.28 141.73 127.28 140.85 132.29 139.64 132.29"/><polygon class="cls-1" points="149.13 132.29 150.99 121.66 152.28 121.66 150.4 132.29 149.13 132.29"/><polygon class="cls-1" points="157.36 124.25 155.93 132.29 154.7 132.29 156.63 121.32 156.8 121.32 162.46 129.73 163.91 121.66 165.13 121.66 163.2 132.64 163.02 132.64 157.36 124.25"/><path class="cls-1" d="M176.24,132.29h-1.31l-.79-2.7h-4.89l-1.58,2.7h-1.25l6.38-10.81H173Zm-6.41-3.72h4l-1.33-4.7Z"/><polygon class="cls-1" points="181.34 124.25 179.92 132.29 178.69 132.29 180.61 121.32 180.79 121.32 186.45 129.73 187.89 121.66 189.12 121.66 187.19 132.64 187.01 132.64 181.34 124.25"/><path class="cls-1" d="M199.52,131.45a5.11,5.11,0,0,1-1.51.91,4.68,4.68,0,0,1-1.64.29A4.37,4.37,0,0,1,193,131.2a5.28,5.28,0,0,1-1.32-3.71,7.3,7.3,0,0,1,.32-2.14,6.3,6.3,0,0,1,1-1.84,5.64,5.64,0,0,1,1.89-1.63,5,5,0,0,1,2.33-.57,4.51,4.51,0,0,1,1.9.38,5.53,5.53,0,0,1,1.66,1.23l-.71,1a4,4,0,0,0-1.29-1.09,3.45,3.45,0,0,0-1.56-.37,3.5,3.5,0,0,0-1.57.39,4.25,4.25,0,0,0-1.37,1,5,5,0,0,0-1,1.66,6.05,6.05,0,0,0-.33,2,4.31,4.31,0,0,0,1,2.88,3,3,0,0,0,2.38,1.14,3.41,3.41,0,0,0,1.38-.28,4.33,4.33,0,0,0,1.26-.87Z"/><polygon class="cls-1" points="202.46 132.29 204.31 121.66 210.1 121.66 209.92 122.73 205.37 122.73 204.78 126.2 209.29 126.2 209.1 127.28 204.6 127.28 203.89 131.15 208.56 131.15 208.34 132.29 202.46 132.29"/><path class="cls-1" d="M145.47,58.55l-1.23.1,1,.15h9.13c3.64-.41,9.18-2.78,12.83-4.24l-2.45.66a126.59,126.59,0,0,1-19.32,3.33"/><path class="cls-1" d="M98.27,36.69C112.06,38,125.83,40.2,140,39.36a105.22,105.22,0,0,0,19.35-3.1,124.1,124.1,0,0,0,16.43-5.49c5.28-2.15,10.39-4.43,15.46-6.71a15,15,0,0,0-7.07-1.89l-.59.26a145.06,145.06,0,0,1-16.8,6.4,113.7,113.7,0,0,1-19.1,4c-3.32.41-6.66.73-10,.85s-7,.11-10.53,0c-7.06-.27-14-.94-21-1.49-4.69-.37-9.4-.69-14.14-.8-2-.05-4.1-.05-6.15,0-2.26,1.38-5,3.17-7.47,4.43l.3,0a165.79,165.79,0,0,1,19.72.9"/><path class="cls-1" d="M177,23.41c-2.12.72-4.53.55-6.81.83a88,88,0,0,0-9.9,1.39c-4.67,1.15-9.13,3.27-13.83,4.06-11.87,2-23.9,2.34-35.2-2.37a30,30,0,0,0-3-1.07,22.18,22.18,0,0,0-10.59-.71,22.91,22.91,0,0,0-8.88,3.83l-.09.06C101.14,30,113.2,32,125.57,32.8a115.44,115.44,0,0,0,16.53,0,102.56,102.56,0,0,0,14.42-2.19,121,121,0,0,0,22.88-7.88c-.79.19-1.59.42-2.39.69"/><path class="cls-1" d="M119.14,44.57c1.7.23,3.4.47,5.09.72s3.49.31,5.22.4q4.34.23,8.67.11a93.23,93.23,0,0,0,11.29-1.06,113.79,113.79,0,0,0,18.15-4.25c5.65-1.82,10.9-4,16-6.2s10.21-4.57,15.58-6.67A8.89,8.89,0,0,0,196,26.07a20.91,20.91,0,0,1-3.2-1.19c-3.7,1.61-7.34,3.28-11,4.84a141.72,141.72,0,0,1-17.23,6.12,124.34,124.34,0,0,1-19.26,3.68,125.38,125.38,0,0,1-17.89.64c-7.05-.22-14-.84-21-1.39a196.78,196.78,0,0,0-27.59-.72,47.42,47.42,0,0,0-7.47,1.15c-1.4.69-2.78,1.34-4,1.85h0c-2.57,1.07-6.57,2.73-9.35,4h-.07l-4,1.92a8.44,8.44,0,0,0-2.3,2.47C55.74,47.8,60,46.31,64.47,45c3-.85,6-1.58,9.21-2.16,1.67-.3,3.38-.5,5.11-.64l4.36-1.19,7.45-2a8.89,8.89,0,0,1,.73,2,3.22,3.22,0,0,1-.18,1.05c3.1.12,6.2.33,9.3.52,6.31.37,12.54,1.12,18.69,2"/><path class="cls-1" d="M61.84,54.06a5,5,0,0,1,.92-.41c3-.8,6-1.57,9.06-2.36.11.31.23.61.34.91-1.2.54-2.36,1.24-3.55,1.8l-3.45,1.39a65.6,65.6,0,0,1,13.65-1.78,167.51,167.51,0,0,1,19.7,1.25c2.25.26,4.51.55,6.76.83l3.25-1.63c.37-.22.75-.45,1.1-.7a29.36,29.36,0,0,1,4.26-2.11l-7.55-.76c-4.68-.45-9.39-.85-14.13-1.05-4.3-.18-8.83-.14-12.94.06a55.55,55.55,0,0,0-5.56.68,76.8,76.8,0,0,0-8.79,2.22q-2.37.75-4.62,1.6l.17.06Z"/><path class="cls-1" d="M203.42,38.32c-.09-.42-.61-1.71-.69-2.13s-.19-1-.27-1.62c-5.29,1.85-10.23,4-15.14,6.17l.64.31h5.09c.65.24,1.86.73,2.77,1.09l1,.4a3.48,3.48,0,0,0,1.78.08c1.07-.41,2.15-.81,3.25-1.19.28-.15.53-.31.75-.45h-.08a3.43,3.43,0,0,0,.92-1.79,2.32,2.32,0,0,0,0-.87"/><path class="cls-1" d="M129.65,54.36h.5A117.67,117.67,0,0,0,142,58.18a107.39,107.39,0,0,0,17.52-2.64,123.9,123.9,0,0,0,16.53-5.2c2.4-.92,4.75-1.88,7.1-2.85l.12-.43.51-1.57c.32-1,.83-2.54,1.25-3.78l-1,.44a145.4,145.4,0,0,1-16.91,6.1,113.76,113.76,0,0,1-19.17,3.67c-3.33.35-6.67.61-10.07.67s-7,0-10.52-.22l-1.93-.12c.42.2.78.37,1,.49,1.06.58,2.14,1.11,3.23,1.62"/><path class="cls-1" d="M77.42,47.25c2.22-.09,4.44-.09,6.66,0,10.81.27,21.25,1.92,31.79,3.21l1.18-.47h3c.69.26,1.89.76,3.09,1.27.93.09,1.85.18,2.78.25a115.52,115.52,0,0,0,16.53.29,103.43,103.43,0,0,0,14.46-1.93c12.48-2.56,22.62-7.25,32.85-11.74,4-1.77,8.13-3.52,12.51-5a11,11,0,0,0-.46-1.84h0a9.64,9.64,0,0,0-1.46-2.48c-3.22,1.19-6.3,2.51-9.33,3.84-5.31,2.33-10.52,4.73-16.17,6.81a114.32,114.32,0,0,1-34.69,6.86c-14,.58-27.9-1.56-41.77-2.54-2.62-.18-5.28-.33-7.94-.42a4.94,4.94,0,0,1-2.65,1.38c-2,.43-8.77,1.59-10.92,1.76l-8.22.08a76.86,76.86,0,0,0-9.12,3.3s0,0,.07.08H59.4c-.22.21-.74.64-1.3,1.09a87.3,87.3,0,0,1,10.82-2.72,63.29,63.29,0,0,1,8.5-1"/><path class="cls-1" d="M183.21,49.9a2.17,2.17,0,0,1-.22-.84l-.86.35a148,148,0,0,1-14.47,5,19.2,19.2,0,0,0,1.62,4.37h1.94c4.37-1.46,8.55-3.1,12.64-4.79,2.79-1.15,5.55-2.33,8.34-3.48-1.21-.26-2.28-.48-3.15-.63Z"/><path class="cls-1" d="M79,55.88c-5.84.26-11.49,1.9-16.44,3.53-2.88.94-5.64,2-8.35,3.07l-.8.33a2.07,2.07,0,0,0,.29,2.77,2.91,2.91,0,0,0,.31.3c1.67,1.44,3.2-.15,4.55-1.31a2.13,2.13,0,0,0,.29-.31,4.54,4.54,0,0,1,.74-.88c1.23-.9,2.42-2.12,3.82-2.49.18,0,3.39-1.8,4-2.09h4.32c2.7-.63,5.42-1.21,8.14-1.7a13.28,13.28,0,0,1,6.66.46A29.69,29.69,0,0,0,91,58.8h7.1a17.34,17.34,0,0,0,5.18-2A177.85,177.85,0,0,0,79,55.88"/><path class="cls-1" d="M194.53,62.89l.89-.4A134,134,0,0,1,209,57l2-.62c-.73-.87-1.59-1.66-1.75-2-1.14-.21-2.64-.53-4.32-.91-6.17,2.31-11.86,5.09-17.62,7.65,2.59.53,5.1,1.13,7.29,1.79"/><path class="cls-1" d="M177.85,58.58c-.6.24-1.22.47-1.84.7,2.69.34,5.75.79,8.8,1.35,2.65-1.2,5.27-2.42,7.9-3.63,3.1-1.43,6.25-2.85,9.54-4.15-2.47-.58-5.11-1.21-7.51-1.76l-.84.39c-5.26,2.42-10.44,4.92-16.05,7.1"/><path class="cls-1" d="M199.26,64.73a2.68,2.68,0,0,0,1.84.29,7.75,7.75,0,0,1,4.84.12c1.87-.68,3.79-1.32,5.76-1.9l1.07-.31.64-.6c.44-.42.87-.84,1.29-1.27l.65-.7L212,58.73a1.16,1.16,0,0,0-.06-.92,122,122,0,0,0-15.39,5.74,22.9,22.9,0,0,1,2.75,1.18"/><path class="cls-1" d="M211,65.15l.07,0c.64-.17,1.73-.48-.07,0"/><path class="cls-1" d="M211,65.15l-.07,0,.14,0-.07,0"/><path class="cls-1" d="M210.91,65.17l.07,0-.07,0"/><path class="cls-1" d="M210.91,65.17c-.87.24-1.72.5-2.57.77a10,10,0,0,0,4.95.28c1.8-.35,3.56-1,4.48-2.61q-3.47.61-6.72,1.52l-.14,0"/><path class="cls-2" d="M11.09,89,8.81,101.69H1.3L7,69.29H14.8q5.9,0,9.28,2.74a9,9,0,0,1,3.39,7.43,8.46,8.46,0,0,1-2.2,5.94,10.35,10.35,0,0,1-6.11,3.06l8.13,13.23H18.64L11.36,89Zm.74-4.41.85,0h1.11a7,7,0,0,0,4.56-1.37A4.53,4.53,0,0,0,20,79.55a3.86,3.86,0,0,0-1.43-3.26,6.88,6.88,0,0,0-4.24-1.1h-.81Z"/><path class="cls-2" d="M48.6,81.56l-3.53,20.13h-7l.36-2.1a12.39,12.39,0,0,1-3.06,2.19,6.86,6.86,0,0,1-3,.69,6.14,6.14,0,0,1-5-2.42,10,10,0,0,1-1.92-6.41,14.48,14.48,0,0,1,2.84-9.17,8.65,8.65,0,0,1,7.1-3.65,7,7,0,0,1,3.06.66,10.46,10.46,0,0,1,2.84,2.13l.31-2Zm-8.11,6.32a4.23,4.23,0,0,0-1.31-1.63,3,3,0,0,0-1.8-.54,4.33,4.33,0,0,0-3.64,2.22,9.58,9.58,0,0,0-1.5,5.51,4.31,4.31,0,0,0,.85,2.8,2.79,2.79,0,0,0,2.28,1.05,3.54,3.54,0,0,0,2.8-1.4A8.13,8.13,0,0,0,39.79,92Z"/><path class="cls-2" d="M45.15,111.43,50.4,81.56h7L57,83.66a12.39,12.39,0,0,1,3.06-2.19,6.75,6.75,0,0,1,3-.69,6.06,6.06,0,0,1,5,2.42A10.08,10.08,0,0,1,70,89.6a15.29,15.29,0,0,1-2.77,9.26q-2.78,3.8-6.66,3.79a7.66,7.66,0,0,1-3.33-.77,10.09,10.09,0,0,1-3-2.25l-2.1,11.8ZM55,95.36a9.17,9.17,0,0,0,1.94,1.46,3.7,3.7,0,0,0,1.68.47,3.87,3.87,0,0,0,3.27-2.18,10,10,0,0,0,1.36-5.42A4.31,4.31,0,0,0,62.42,87a2.56,2.56,0,0,0-2.12-1,4.07,4.07,0,0,0-1.89.51A9.89,9.89,0,0,0,56.32,88Z"/><path class="cls-2" d="M68.89,101.69,72.4,81.56h7.15L76,101.69Zm4.34-27.77a3.72,3.72,0,1,1,1.09,2.61,3.58,3.58,0,0,1-1.09-2.61"/><path class="cls-2" d="M91.1,101.69l.35-2.1a11.84,11.84,0,0,1-3,2.18,6.91,6.91,0,0,1-3,.7,6.15,6.15,0,0,1-5-2.42,10,10,0,0,1-1.92-6.41,14.54,14.54,0,0,1,2.84-9.17,8.67,8.67,0,0,1,7.1-3.65,7.42,7.42,0,0,1,3.17.68,9,9,0,0,1,2.73,2.11l2.57-14.77h7l-5.77,32.85Zm2.41-13.81a4.14,4.14,0,0,0-1.31-1.63,3,3,0,0,0-1.8-.54,4.33,4.33,0,0,0-3.64,2.22,9.58,9.58,0,0,0-1.49,5.51,4.26,4.26,0,0,0,.87,2.8,2.84,2.84,0,0,0,2.3,1.05,3.49,3.49,0,0,0,2.78-1.4A8.42,8.42,0,0,0,92.82,92Z"/><path class="cls-2" d="M115.26,101.69H107.7l22.35-33.45h.73l10,33.45h-7.82l-1.34-4.76H118.27Zm14.79-10.08-2.62-8.82-5.76,8.82Z"/><path class="cls-2" d="M153.33,101.69l.36-2.1a12.05,12.05,0,0,1-3,2.18,6.91,6.91,0,0,1-3,.7,6.17,6.17,0,0,1-5.05-2.42,10,10,0,0,1-1.92-6.41,14.54,14.54,0,0,1,2.84-9.17,8.67,8.67,0,0,1,7.11-3.65,7.38,7.38,0,0,1,3.16.68,8.91,8.91,0,0,1,2.73,2.11l2.57-14.77h7l-5.77,32.85Zm2.41-13.81a4.12,4.12,0,0,0-1.3-1.63,3.08,3.08,0,0,0-1.8-.54A4.32,4.32,0,0,0,149,87.93a9.58,9.58,0,0,0-1.5,5.51,4.26,4.26,0,0,0,.87,2.8,2.84,2.84,0,0,0,2.3,1.05,3.48,3.48,0,0,0,2.78-1.4,8.42,8.42,0,0,0,1.6-3.94Z"/><polygon class="cls-2" points="170.4 102.83 163.07 81.56 170.18 81.56 172.93 90.03 178.31 81.56 184.81 81.56 170.98 102.83 170.4 102.83"/><path class="cls-2" d="M181.75,101.69l3.51-20.13h7.15l-3.57,20.13Zm4.34-27.77a3.69,3.69,0,0,1,3.71-3.71,3.67,3.67,0,0,1,3.71,3.71,3.71,3.71,0,0,1-7.42,0"/><path class="cls-2" d="M193.15,95.83a21.58,21.58,0,0,0,3.63,1.72,9.58,9.58,0,0,0,3,.57,2.8,2.8,0,0,0,1.73-.51,1.47,1.47,0,0,0,.2-2.33,8.15,8.15,0,0,0-2.11-1.23l-1.34-.65a9,9,0,0,1-3.46-2.67,5.86,5.86,0,0,1-1.16-3.59,5.71,5.71,0,0,1,2.29-4.65,9.1,9.1,0,0,1,5.91-1.85,13.91,13.91,0,0,1,4.1.62,15.45,15.45,0,0,1,4,1.91L208,87.23a17.77,17.77,0,0,0-3.12-1.56,7.6,7.6,0,0,0-2.6-.54,3,3,0,0,0-1.78.48,1.47,1.47,0,0,0-.68,1.24,1.55,1.55,0,0,0,.58,1.21,10.55,10.55,0,0,0,2.48,1.32l1.23.51a7.44,7.44,0,0,1,3.21,2.46,6.11,6.11,0,0,1-1.21,8.39,9.72,9.72,0,0,1-6.2,1.87,16.23,16.23,0,0,1-4.46-.62,15.67,15.67,0,0,1-4.14-1.87Z"/><path class="cls-2" d="M209.71,92.53a11.51,11.51,0,0,1,3.47-8.48,11.75,11.75,0,0,1,8.61-3.45,10.34,10.34,0,0,1,7.46,2.77,9.48,9.48,0,0,1,2.89,7.19,11.72,11.72,0,0,1-3.43,8.56,11.34,11.34,0,0,1-8.39,3.49,10.69,10.69,0,0,1-7.69-2.79,9.58,9.58,0,0,1-2.92-7.29m11.77-6.64a3.92,3.92,0,0,0-3.22,2,8,8,0,0,0-1.36,4.69,5.59,5.59,0,0,0,1,3.47,3.06,3.06,0,0,0,2.55,1.33,3.81,3.81,0,0,0,3.17-1.92A8.21,8.21,0,0,0,225,90.65a5.79,5.79,0,0,0-1-3.44,3,3,0,0,0-2.51-1.32"/><path class="cls-2" d="M232.23,101.69l3.55-20.13h6.37l-.69,3.93a11.42,11.42,0,0,1,2.67-3.42A4.81,4.81,0,0,1,247.18,81a6.71,6.71,0,0,1,1,.08,5.46,5.46,0,0,1,1,.26l-1.27,7.08a12,12,0,0,0-1.2-.23,8.34,8.34,0,0,0-1.08-.08,4.11,4.11,0,0,0-3.28,1.37,9.6,9.6,0,0,0-1.73,4.48l-1.32,7.78Z"/><polygon class="cls-2" points="248.72 111.43 253.97 100.68 248.07 81.56 255.22 81.56 258.33 92.39 263.13 81.56 269.41 81.56 255.02 111.43 248.72 111.43"/><path class="cls-1" d="M61.61,106.76c-.36,0-.71,0-1,0s-.67,0-1,0H57.2l-.42,2.31H245.25l1.13-2.31Z"/><path class="cls-1" d="M60.57,106.8c.33,0,.68,0,1,0h-2c.34,0,.67,0,1,0"/><polygon class="cls-1" points="0 109.07 41.35 109.07 41.75 106.76 0.41 106.76 0 109.07"/></svg>